<svg width="57" height="55" viewBox="0 0 57 55" fill="none" xmlns="http://www.w3.org/2000/svg">
<g id="covidfree 1" clip-path="url(#clip0_52_24)">
<g id="Camada_1-2">
<path id="Vector" d="M49.7683 12.1385C50.3387 11.5775 50.4345 10.7789 49.9932 10.1318L47.7114 12.3761C48.3776 12.7774 49.1979 12.6955 49.7642 12.1385H49.7683Z" fill="#39556D"/>
<path id="Vector_2" d="M3.58005 30.2152C3.61336 29.949 3.60919 29.6787 3.59254 29.4125C3.58005 29.1955 3.65083 29.1259 3.87151 29.1341C4.77921 29.1504 5.69107 29.1586 6.59877 29.1545C6.7903 29.1545 6.79446 29.2528 6.81112 29.388C7.01098 31.2677 7.43152 33.0983 8.07273 34.8757C8.78473 36.8455 9.82151 38.6311 11.1123 40.2692L13.4898 37.9308C11.3787 35.0477 10.1171 31.5216 10.0672 27.7089C9.94226 18.1709 17.7201 9.8124 27.9213 9.66906C31.9685 9.61172 35.7367 10.8649 38.8012 13.0313L41.187 10.6847C41.162 10.6683 41.1412 10.6478 41.1162 10.6315C38.6222 8.69438 35.7658 7.52312 32.6888 6.85558C31.8519 6.67539 30.99 6.59758 30.1406 6.47472C29.9824 6.45424 29.8658 6.42557 29.87 6.22081C29.8824 5.31575 29.8866 4.41478 29.8866 3.50971C29.8866 3.32543 29.9574 3.28857 30.1364 3.29676C30.4196 3.30904 30.7027 3.30904 30.9817 3.27219C31.9435 3.14933 32.5847 2.2115 32.3515 1.28187C32.1517 0.483282 31.5146 0.00413041 30.5986 -0.00406021C29.0039 -0.0122508 27.4092 -0.00815552 25.8145 -0.00406021C25.6313 -0.00406021 25.4439 0.024607 25.2648 0.0737507C24.4946 0.290802 24.0116 0.970623 24.0615 1.74464C24.1115 2.53094 24.6819 3.15342 25.4939 3.26809C25.827 3.31724 26.1684 3.30904 26.5639 3.32952C26.5639 4.31649 26.5639 5.30346 26.5556 6.29043C26.5556 6.34367 26.464 6.42148 26.3974 6.44605C26.2975 6.48291 26.185 6.48291 26.0809 6.4911C24.0157 6.63444 22.0379 7.17911 20.1309 7.92036C18.0741 8.71895 16.2129 9.86973 14.4932 11.2376C14.3642 11.3399 14.2601 11.43 14.0977 11.2662C13.4231 10.5946 12.7403 9.93525 12.0658 9.26772C12.0491 9.25134 12.0491 9.21448 12.0366 9.18991C12.2573 8.95648 12.4988 8.73942 12.6945 8.48961C13.2524 7.78931 13.1817 6.84739 12.5446 6.27405C11.8617 5.66385 10.9249 5.67613 10.2462 6.3191C9.96307 6.58529 9.69243 6.86377 9.41762 7.13406C8.49744 8.03913 7.56059 8.92371 6.66539 9.85335C5.77434 10.7789 6.15741 12.1508 7.38155 12.5317C8.06024 12.7446 8.60569 12.4948 9.09285 12.0566C9.27606 11.8928 9.4551 11.7208 9.60083 11.5816C10.2379 12.1877 10.8541 12.7692 11.462 13.3507C11.8951 13.7685 11.8951 13.7767 11.5078 14.2435C8.77641 17.573 7.18585 21.3571 6.81528 25.6244C6.79863 25.8251 6.6987 25.8291 6.5488 25.8291C5.82431 25.8291 5.09982 25.8332 4.37949 25.8291C4.13799 25.8291 3.7924 25.9029 3.67998 25.78C3.5509 25.6367 3.62169 25.3131 3.60919 25.0674C3.60503 24.9896 3.5967 24.9159 3.58838 24.8381C3.51759 24.1787 3.15118 23.7323 2.54328 23.4948C1.9312 23.2573 1.35244 23.3597 0.844466 23.7774C0.378126 24.1746 0.240723 24.6784 0.240723 25.2394C0.244886 26.4312 0.240723 27.6229 0.24905 28.8146C0.24905 29.2651 0.240723 29.7197 0.28236 30.1661C0.361471 30.9892 1.06514 31.5953 1.91039 31.6076C2.75563 31.6199 3.47596 31.0261 3.58005 30.2111V30.2152Z" fill="#39556D"/>
<path id="Vector_3" d="M6.75305 42.8C6.12849 43.3447 6.01191 44.1842 6.44077 44.86L8.71418 42.6239C8.10627 42.2594 7.2985 42.325 6.74889 42.8H6.75305Z" fill="#39556D"/>
<path id="Vector_4" d="M10.5625 48.9184C10.8415 49.0904 11.1496 49.1887 11.5077 49.16C12.1614 49.1109 12.6569 48.7874 12.9192 48.1854C13.1524 47.653 13.1232 47.141 12.8359 46.6824L10.5625 48.9184Z" fill="#39556D"/>
<path id="Vector_5" d="M56.1888 25.1452C56.1971 24.2197 55.5434 23.4702 54.6649 23.4047C53.7031 23.3351 52.9453 23.9576 52.8453 24.924C52.8162 25.223 52.8412 25.5302 52.8412 25.8537C51.8752 25.8537 50.9758 25.8537 50.0806 25.8537C49.6226 25.8537 49.6226 25.8537 49.581 25.4073C49.4102 23.4497 48.9023 21.57 48.2069 19.7394C47.5116 17.917 46.4998 16.2748 45.3089 14.739L42.9314 17.0774C45.0758 19.9851 46.3499 23.548 46.3541 27.4181C46.3707 37.9226 37.6976 45.2327 28.5041 45.3433C24.4069 45.3924 20.6471 44.1392 17.6075 41.9851L15.2134 44.3399C16.5874 45.3801 18.0989 46.1992 19.6852 46.8872C21.7796 47.7963 23.9864 48.3369 26.2681 48.5376C26.4222 48.5499 26.5304 48.5581 26.5263 48.7547C26.5263 49.6761 26.5346 50.6016 26.5263 51.5231C26.5263 51.5804 26.4264 51.6787 26.3639 51.6869C26.1724 51.7074 25.9725 51.6869 25.7768 51.6951C24.6193 51.7319 23.874 52.6206 24.0905 53.6977C24.2487 54.484 24.9232 54.9877 25.8559 55C26.4222 55.0082 26.9885 54.9877 27.5589 54.9836C28.6748 54.9795 29.7907 55.0041 30.9024 54.9672C31.6768 54.9427 32.3139 54.2874 32.3763 53.5339C32.4471 52.6943 31.9641 51.9736 31.173 51.7934C30.8441 51.7197 30.4943 51.7115 30.1571 51.7074C29.9406 51.7074 29.8656 51.6459 29.8656 51.4289C29.8739 50.573 29.8781 49.717 29.8656 48.8611C29.8614 48.6031 29.9697 48.5499 30.2029 48.5171C31.1772 48.382 32.164 48.2755 33.1217 48.0584C36.411 47.309 39.3714 45.8879 41.953 43.742C42.1278 43.5946 42.2236 43.6028 42.3818 43.7625C42.9065 44.2949 43.4394 44.815 43.9766 45.3351C44.1264 45.4825 44.2972 45.6094 44.4595 45.7446C44.1514 46.0845 43.8849 46.3384 43.6684 46.6292C43.1896 47.2721 43.2937 48.2059 43.8725 48.7342C44.5137 49.3157 45.4047 49.3444 46.0584 48.8038C46.1625 48.7178 46.2624 48.6236 46.3582 48.5294C47.445 47.4646 48.5317 46.3958 49.6143 45.3269C49.7184 45.2245 49.8183 45.118 49.9016 45.0033C50.422 44.299 50.3471 43.443 49.7225 42.8615C49.0938 42.2759 48.1445 42.2472 47.4783 42.8001C47.3075 42.9434 47.141 43.0949 46.9994 43.2628C46.8537 43.4307 46.7496 43.4226 46.5997 43.2669C46.0001 42.6608 45.4047 42.0506 44.7802 41.4691C44.572 41.2766 44.6011 41.1701 44.7635 40.9818C46.5164 38.9136 47.8239 36.6121 48.6399 34.032C49.1188 32.5127 49.456 30.9687 49.6018 29.3879C49.6184 29.2118 49.6684 29.1381 49.8641 29.1422C50.6677 29.1586 51.4671 29.1627 52.2707 29.1668C52.4414 29.1668 52.6122 29.1668 52.7829 29.1668C52.8037 29.5477 52.8079 29.8835 52.8495 30.2152C52.9453 31.0261 53.6614 31.6281 54.5108 31.6281C55.3311 31.6281 56.0514 31.0261 56.1513 30.2275C56.1888 29.9162 56.1597 29.5968 56.1597 29.2774C56.168 27.9013 56.168 26.5294 56.1805 25.1534L56.1888 25.1452Z" fill="#39556D"/>
<path id="Vector_6" d="M45.8877 6.0612C45.588 5.88101 45.2465 5.8032 44.8718 5.85234C44.2181 5.93425 43.7392 6.26187 43.5019 6.87617C43.3021 7.39218 43.3479 7.87133 43.6102 8.30543L45.8919 6.0612H45.8877Z" fill="#39556D"/>
<path id="Vector_7" d="M29.6283 20.1529C29.6283 20.6935 29.749 21.23 29.9613 21.7214L35.1952 16.5736C34.7288 16.3771 34.2042 16.2624 33.613 16.2583C31.4436 16.2583 29.6116 18.0357 29.6241 20.1529H29.6283Z" fill="#39556D"/>
<path id="Vector_8" d="M20.1435 26.1567C18.4863 26.1239 17.1206 27.4221 17.0956 29.0562C17.0707 30.5059 18.1324 31.7263 19.5356 31.9802C19.698 32.0089 19.8604 32.0294 20.0311 32.0294C21.6799 32.0539 23.029 30.7926 23.054 29.2118C23.054 28.9906 23.0373 28.7777 22.9998 28.5688C22.7417 27.1928 21.5925 26.1813 20.1435 26.1526V26.1567Z" fill="#39556D"/>
<path id="Vector_9" d="M29.6284 36.5588C29.6284 37.7833 30.6111 38.7539 31.856 38.758C33.1135 38.758 34.0836 37.7874 34.0878 36.5302C34.0878 35.3712 33.0593 34.376 31.8602 34.3801C30.6444 34.3842 29.6326 35.3753 29.6326 36.5588H29.6284Z" fill="#39556D"/>
<path id="Vector_10" d="M51.6837 4.25502C51.1132 3.69396 50.193 3.69396 49.6226 4.25502L3.06357 50.0488C2.49313 50.6098 2.49313 51.5149 3.06357 52.0759C3.3467 52.3544 3.72144 52.4978 4.09618 52.4978C4.47091 52.4978 4.84149 52.3585 5.12879 52.0759L51.6837 6.2822C52.2541 5.72114 52.2541 4.81608 51.6837 4.25502Z" fill="#39556D"/>
</g>
</g>
<defs>
<clipPath id="clip0_52_24">
<rect width="55.9483" height="55" fill="white" transform="translate(0.240723)"/>
</clipPath>
</defs>
</svg>
