<svg width="100" height="100" viewBox="0 0 100 100" fill="none" xmlns="http://www.w3.org/2000/svg">
<path d="M78.75 48.751V36.251M78.75 36.251V23.751M78.75 36.251L91.25 36.251M78.75 36.251H66.25M58.75 23.751V16.251M58.75 16.251V8.75098M58.75 16.251L66.25 16.251M58.75 16.251L51.25 16.251M88.7496 62.2486C84.9901 63.3887 81.0014 64.0018 76.8696 64.0018C54.2946 64.0018 35.9939 45.7011 35.9939 23.1261C35.9939 18.996 36.6064 15.009 37.7456 11.251C20.9646 16.3401 8.75 31.9303 8.75 50.3734C8.75 72.9485 27.0507 91.2491 49.6257 91.2491C68.0706 91.2491 83.6621 79.0321 88.7496 62.2486Z" stroke="#84F5E9" stroke-width="6" stroke-linecap="round" stroke-linejoin="round"/>
</svg>
