<svg width="86" height="84" viewBox="0 0 86 84" fill="none" xmlns="http://www.w3.org/2000/svg">
<g id="Group 33">
<rect id="Rectangle 10" y="0.000488281" width="85.4483" height="84" rx="32" fill="#84F5E9"/>
<path id="Vector" d="M64.4006 21.6718C63.791 21.0739 63.0541 20.6163 62.243 20.3321C61.432 20.0479 60.5668 19.9442 59.7101 20.0284C54.2628 20.5461 35.9434 22.7764 28.8676 29.726C25.4853 33.0607 23.4796 37.5095 23.2379 42.2131C22.9962 46.9167 24.5357 51.5416 27.5589 55.1945L19.8746 62.7501C19.5194 63.1118 19.3228 63.5962 19.3272 64.099C19.3317 64.6018 19.5368 65.0828 19.8984 65.4383C20.26 65.7939 20.7492 65.9956 21.2605 65.9999C21.7719 66.0043 22.2646 65.811 22.6324 65.4617L30.3167 57.9061C34.0311 60.8827 38.736 62.3995 43.5218 62.1632C48.3075 61.927 52.8343 59.9545 56.2268 56.627C63.3962 49.5757 65.5883 31.6187 66.0935 26.2838C66.1761 25.4398 66.067 24.5883 65.7743 23.7907C65.4815 22.9931 65.0123 22.2694 64.4006 21.6718ZM53.4788 53.9078C50.8195 56.5129 47.2869 58.0774 43.5404 58.3093C39.794 58.5411 36.0898 57.4244 33.1193 55.1677L51.9049 36.6967C52.2601 36.335 52.4567 35.8506 52.4523 35.3478C52.4478 34.845 52.2427 34.364 51.8811 34.0085C51.5195 33.6529 51.0303 33.4513 50.519 33.4469C50.0076 33.4425 49.5149 33.6358 49.1471 33.9851L30.3518 52.4561C28.0562 49.5355 26.9202 45.8932 27.156 42.2094C27.3918 38.5256 28.9833 35.0521 31.6332 32.4376C36.5265 27.6281 50.0189 24.7938 60.0865 23.8445C60.3716 23.8172 60.6594 23.8521 60.9293 23.9465C61.1992 24.0409 61.4446 24.1927 61.6481 24.391C61.8516 24.5892 62.0082 24.8291 62.1067 25.0936C62.2053 25.3581 62.2433 25.6407 62.2182 25.9213C61.243 36.2518 58.4326 49.0273 53.469 53.9078H53.4788Z" fill="#39556D"/>
</g>
</svg>
