<svg width="47" height="47" viewBox="0 0 47 47" fill="none" xmlns="http://www.w3.org/2000/svg">
<g id="fi-rr-chart-network">
<path id="Vector" d="M38.4739 23.0003C37.3038 23.0001 36.1494 23.2708 35.1002 23.7913C34.051 24.3118 33.1352 25.0682 32.4239 26.0018L32.2904 25.9443C32.8149 24.3114 32.8935 22.5668 32.518 20.8929C32.1425 19.219 31.3266 17.677 30.1556 16.4282C28.9845 15.1793 27.5013 14.2694 25.8607 13.7933C24.2202 13.3172 22.4825 13.2925 20.8292 13.7218L20.6557 13.3921C22.0411 12.1534 22.9295 10.4495 23.1543 8.59974C23.3791 6.74997 22.9249 4.88132 21.8768 3.34397C20.8288 1.80662 19.2588 0.70611 17.4611 0.248683C15.6634 -0.208745 13.7614 0.00830964 12.1116 0.859169C10.4617 1.71003 9.17729 3.13629 8.49897 4.87065C7.82065 6.60501 7.795 8.52843 8.42684 10.2804C9.05868 12.0324 10.3046 13.4928 11.9312 14.3877C13.5578 15.2827 15.4533 15.5509 17.2625 15.142L17.4018 15.4046C15.4945 16.8753 14.2115 19.0166 13.8104 21.3985C13.4092 23.7805 13.9195 26.2268 15.2388 28.2463L11.6435 31.6253C10.0184 30.7231 8.12168 30.4473 6.30872 30.8496C4.49577 31.252 2.89103 32.3049 1.79523 33.811C0.699437 35.3171 0.187785 37.1731 0.356158 39.0312C0.524531 40.8892 1.36137 42.6218 2.70987 43.9043C4.05836 45.1867 5.82595 45.931 7.68141 45.9977C9.53687 46.0643 11.3529 45.4488 12.789 44.2664C14.2252 43.084 15.1831 41.4159 15.4831 39.5747C15.7831 37.7335 15.4047 35.8455 14.4187 34.2646L17.9244 30.9718C19.8498 32.265 22.1782 32.8089 24.4738 32.5016C26.7694 32.1943 28.875 31.0569 30.3964 29.3023L30.9285 29.5304C30.6977 31.078 30.9436 32.6596 31.6334 34.0627C32.3231 35.4657 33.4236 36.6231 34.787 37.3792C36.1504 38.1354 37.7115 38.4542 39.2605 38.2928C40.8095 38.1314 42.2722 37.4975 43.4522 36.4762C44.6322 35.455 45.473 34.0954 45.8615 32.58C46.2501 31.0645 46.1679 29.4659 45.6259 27.9988C45.0839 26.5317 44.1082 25.2664 42.8297 24.3729C41.5512 23.4794 40.0312 23.0004 38.4739 23.0003ZM11.7713 7.667C11.7713 6.90884 11.9951 6.16771 12.4142 5.53732C12.8334 4.90693 13.4291 4.4156 14.1262 4.12547C14.8232 3.83533 15.5902 3.75942 16.3302 3.90733C17.0702 4.05524 17.7499 4.42033 18.2834 4.95643C18.8168 5.49253 19.1802 6.17556 19.3273 6.91916C19.4745 7.66275 19.399 8.43351 19.1103 9.13396C18.8215 9.83441 18.3326 10.4331 17.7053 10.8543C17.078 11.2755 16.3405 11.5003 15.586 11.5003C14.5743 11.5003 13.604 11.0965 12.8886 10.3776C12.1732 9.65869 11.7713 8.68367 11.7713 7.667ZM7.95667 42.167C7.2022 42.167 6.46468 41.9422 5.83736 41.521C5.21004 41.0998 4.72111 40.5011 4.43239 39.8006C4.14367 39.1002 4.06812 38.3294 4.21531 37.5858C4.3625 36.8422 4.72581 36.1592 5.2593 35.6231C5.79279 35.087 6.4725 34.7219 7.21247 34.574C7.95244 34.4261 8.71944 34.502 9.41648 34.7921C10.1135 35.0823 10.7093 35.5736 11.1284 36.204C11.5476 36.8344 11.7713 37.5755 11.7713 38.3337C11.7713 39.3503 11.3694 40.3254 10.654 41.0442C9.93865 41.7631 8.96838 42.167 7.95667 42.167ZM23.2153 28.7503C21.9768 28.7479 20.7726 28.3418 19.7835 27.5929C18.7943 26.8441 18.0736 25.7929 17.7296 24.5974C17.3857 23.4018 17.437 22.1264 17.8758 20.9627C18.3147 19.7989 19.1175 18.8097 20.1636 18.1435L20.9399 17.7276C21.7199 17.3866 22.5657 17.2247 23.4159 17.2536C24.266 17.2826 25.099 17.5016 25.8543 17.8948C26.6096 18.2879 27.2681 18.8454 27.782 19.5266C28.2959 20.2077 28.6522 20.9955 28.825 21.8324C28.9977 22.6694 28.9827 23.5345 28.7808 24.3649C28.5789 25.1953 28.1954 25.9699 27.658 26.6326C27.1207 27.2952 26.4431 27.8291 25.6746 28.1955C24.9061 28.5618 24.0659 28.7514 23.2153 28.7503ZM38.4739 34.5003C37.7194 34.5003 36.9819 34.2755 36.3546 33.8543C35.7273 33.4331 35.2384 32.8344 34.9496 32.134C34.6609 31.4335 34.5854 30.6628 34.7326 29.9192C34.8797 29.1756 35.2431 28.4925 35.7765 27.9564C36.31 27.4203 36.9897 27.0552 37.7297 26.9073C38.4697 26.7594 39.2367 26.8353 39.9337 27.1255C40.6308 27.4156 41.2265 27.9069 41.6457 28.5373C42.0648 29.1677 42.2886 29.9088 42.2886 30.667C42.2886 31.6837 41.8867 32.6587 41.1713 33.3776C40.4559 34.0965 39.4856 34.5003 38.4739 34.5003Z" fill="#39556D"/>
</g>
</svg>
